<?xml version="1.0" encoding="utf-8"?>
<!-- Generator: Adobe Illustrator 21.1.0, SVG Export Plug-In . SVG Version: 6.00 Build 0)  -->
<svg version="1.1" id="Layer_1" xmlns="http://www.w3.org/2000/svg" xmlns:xlink="http://www.w3.org/1999/xlink" x="0px" y="0px"
	 viewBox="0 0 569.6 114.8" style="enable-background:new 0 0 569.6 114.8;" xml:space="preserve">
<style type="text/css">
	.st0{fill:#1C3E71;}
	.st1{fill:#F16F24;}
</style>
<g transform="translate(-20, 0)">
		<g>
			<path class="st0" d="M181.3,62.1c3,0.3,5.6,0.6,7.8,1c2.2,0.4,4,0.9,5.5,1.5c1.4,0.7,2.5,1.5,3.2,2.6c0.7,1.1,1,2.5,1,4.2
				c0,1.3-0.2,2.6-0.7,3.8c-0.5,1.2-1.4,2.2-2.7,3c-1.3,0.8-3.1,1.5-5.4,2c-2.3,0.5-5.3,0.7-8.9,0.7c-3.4,0-6.5-0.3-9.1-0.9
				c-2.6-0.6-4.9-1.3-6.9-2v-4.2c0.8,0.4,1.8,0.7,2.8,1.1c1,0.3,2.2,0.6,3.5,0.9c1.3,0.3,2.7,0.5,4.4,0.7c1.6,0.2,3.4,0.3,5.5,0.3
				c2.8,0,5.1-0.2,6.8-0.5c1.7-0.3,3-0.7,3.9-1.2c0.9-0.5,1.5-1.1,1.8-1.7c0.3-0.6,0.4-1.2,0.4-1.8c0-0.7-0.1-1.3-0.4-1.8
				c-0.3-0.5-0.9-0.9-1.7-1.3c-0.9-0.4-2.1-0.7-3.8-0.9c-1.6-0.3-3.8-0.5-6.5-0.7c-2.5-0.2-4.9-0.5-6.9-0.8c-2.1-0.3-3.9-0.8-5.3-1.4
				c-1.5-0.6-2.6-1.4-3.4-2.5c-0.8-1-1.2-2.4-1.2-4c0-1.1,0.2-2.3,0.5-3.4c0.3-1.1,1-2.1,2.2-3c1.2-0.9,2.9-1.6,5.1-2.1
				c2.3-0.5,5.3-0.8,9.2-0.8c3.4,0,6.4,0.2,9.1,0.6c2.7,0.4,4.8,0.9,6.3,1.5v4.3c-1-0.2-2-0.5-3.1-0.8c-1-0.3-2.1-0.5-3.4-0.7
				c-1.2-0.2-2.5-0.4-4-0.5c-1.5-0.1-3.1-0.2-4.9-0.2c-2.5,0-4.6,0.1-6.2,0.3c-1.6,0.2-2.8,0.5-3.8,0.8c-0.9,0.4-1.5,0.8-1.8,1.3
				c-0.3,0.5-0.5,1.1-0.5,1.8c0,0.8,0.2,1.5,0.5,2c0.3,0.5,0.9,0.9,1.8,1.2c0.9,0.3,2.1,0.6,3.6,0.8C176.9,61.7,178.9,61.9,181.3,62.1
				z"/>
			<path class="st0" d="M220.9,48.9c3.8,0,6.9,0.4,9.2,1.2c2.3,0.8,4.1,2,5.4,3.5c1.3,1.5,2.1,3.2,2.5,5.2c0.4,2,0.6,4.1,0.6,6.4
				c0,2.2-0.2,4.3-0.6,6.2c-0.4,1.9-1.3,3.6-2.6,5c-1.3,1.4-3.1,2.5-5.5,3.3c-2.4,0.8-5.5,1.2-9.4,1.2c-3.8,0-6.9-0.4-9.2-1.2
				c-2.3-0.8-4.1-1.9-5.4-3.3c-1.3-1.4-2.1-3.1-2.5-5c-0.4-1.9-0.6-4-0.6-6.2c0-2.3,0.2-4.4,0.6-6.4c0.4-2,1.3-3.7,2.6-5.2
				c1.3-1.5,3.1-2.6,5.5-3.5C213.9,49.3,217,48.9,220.9,48.9z M220.7,76.7c2.9,0,5.2-0.3,6.9-0.9c1.7-0.6,3.1-1.4,4-2.4
				c0.9-1,1.5-2.3,1.8-3.7c0.3-1.4,0.4-3,0.4-4.7c0-1.7-0.1-3.3-0.4-4.8c-0.3-1.5-0.8-2.7-1.7-3.8c-0.9-1.1-2.2-1.9-3.9-2.5
				c-1.7-0.6-4-0.9-6.9-0.9c-3,0-5.3,0.3-7.1,0.9c-1.7,0.6-3,1.4-3.9,2.5c-0.9,1.1-1.5,2.3-1.7,3.8c-0.3,1.5-0.4,3.1-0.4,4.8
				c0,1.7,0.1,3.3,0.4,4.7c0.3,1.4,0.8,2.6,1.8,3.7s2.2,1.8,3.9,2.4C215.5,76.4,217.8,76.7,220.7,76.7z"/>
			<path class="st0" d="M244.8,37.8h4.9v42.9h-4.9V37.8z"/>
			<path class="st0" d="M255.2,71.3c0-2.1,0.6-3.8,1.7-5c1.1-1.2,2.6-2.1,4.4-2.8c1-0.4,2.1-0.7,3.3-0.9c1.2-0.3,2.7-0.5,4.4-0.6
				c1.7-0.1,3.8-0.2,6.2-0.3c2.4-0.1,5.4-0.1,8.8-0.1v-1.7c0-1.1-0.2-2.1-0.6-3c-0.4-0.8-1-1.6-1.9-2.1c-0.9-0.6-2.1-1-3.6-1.2
				c-1.5-0.3-3.3-0.4-5.6-0.4c-1.7,0-3.2,0.1-4.5,0.2c-1.3,0.1-2.5,0.3-3.6,0.5c-1.1,0.2-2.1,0.5-3.1,0.8c-1,0.3-2,0.6-3,1v-4.4
				c1.7-0.8,3.7-1.4,6.2-1.8c2.5-0.4,5.2-0.6,8.3-0.6c3.5,0,6.3,0.3,8.5,0.9c2.1,0.6,3.8,1.5,4.9,2.5c1.2,1,1.9,2.2,2.3,3.6
				c0.4,1.4,0.5,2.8,0.5,4.3v17.6c-2.1,0.8-4.4,1.5-7,2.1c-2.6,0.6-5.7,0.9-9.2,0.9c-3.2,0-6-0.2-8.2-0.7c-2.2-0.5-4.1-1.1-5.4-2
				c-1.4-0.8-2.4-1.9-3-3C255.5,74.1,255.2,72.8,255.2,71.3z M273,76.7c1.3,0,2.4,0,3.5-0.1c1-0.1,2-0.2,2.8-0.3s1.7-0.3,2.4-0.5
				c0.8-0.2,1.5-0.4,2.4-0.6v-9.4c-5.3,0-9.5,0.1-12.6,0.3c-3.1,0.2-5.5,0.6-7.2,1c-1.7,0.4-2.8,1-3.3,1.8c-0.5,0.7-0.8,1.6-0.8,2.6
				c0,0.8,0.2,1.5,0.7,2.1c0.4,0.6,1.2,1.2,2.2,1.6c1,0.5,2.3,0.8,4,1.1C268.6,76.6,270.6,76.7,273,76.7z"/>
			<path class="st0" d="M311.9,48.9c3.1,0,5.9,0.2,8.3,0.7c2.4,0.4,4.5,0.9,6.3,1.5v4.3c-2.1-0.7-4.3-1.2-6.6-1.6
				c-2.4-0.4-5.1-0.6-8.1-0.6c-2.9,0-5.2,0.2-6.9,0.7c-1.7,0.5-3.1,1.2-4,2.1c-0.9,0.9-1.5,2.1-1.8,3.5c-0.3,1.4-0.5,3-0.5,4.9
				c0,2.1,0.2,3.9,0.5,5.5c0.3,1.5,0.9,2.8,1.8,3.8c0.9,1,2.2,1.8,3.9,2.2c1.7,0.5,3.8,0.7,6.5,0.7c1.7,0,3.3-0.1,4.9-0.3
				c1.6-0.2,3.1-0.5,4.4-0.8c1.3-0.3,2.5-0.6,3.5-1c1-0.3,1.8-0.6,2.4-0.8v4.3c-0.6,0.2-1.4,0.5-2.5,0.8c-1.1,0.3-2.3,0.6-3.7,0.9
				c-1.4,0.3-2.9,0.6-4.4,0.8c-1.6,0.2-3.1,0.3-4.5,0.3c-3.1,0-5.8-0.3-8-0.9s-4.1-1.6-5.5-2.9c-1.4-1.3-2.5-3-3.1-5.1
				c-0.7-2.1-1-4.6-1-7.6c0-2.7,0.3-5.1,1-7.1c0.7-2,1.7-3.6,3.2-4.8c1.5-1.3,3.3-2.2,5.7-2.8C305.9,49.2,308.6,48.9,311.9,48.9z"/>
			<path class="st0" d="M347.6,48.9c2.6,0,5,0.3,7.1,0.8c2.1,0.6,4,1.4,5.5,2.6c1.5,1.2,2.7,2.7,3.5,4.5c0.8,1.8,1.2,3.9,1.2,6.3
				c0,0.6,0,1.3-0.1,1.9c0,0.7-0.1,1.3-0.2,1.8h-30c0.1,1.4,0.4,2.7,0.8,3.9c0.5,1.2,1.2,2.2,2.2,3.1c1,0.9,2.2,1.6,3.8,2.1
				c1.6,0.5,3.6,0.8,5.9,0.8c1.9,0,3.6-0.1,5.3-0.3c1.7-0.2,3.2-0.5,4.5-0.8c1.4-0.3,2.6-0.6,3.6-0.9c1-0.3,1.8-0.6,2.4-0.8v4.2
				c-0.6,0.2-1.3,0.5-2.3,0.8c-1,0.3-2.1,0.6-3.5,0.9c-1.4,0.3-2.9,0.6-4.5,0.8c-1.7,0.2-3.5,0.3-5.4,0.3c-3.1,0-5.8-0.4-8-1.1
				c-2.2-0.7-4.1-1.8-5.5-3.1c-1.4-1.4-2.5-3.1-3.1-5.2c-0.7-2.1-1-4.4-1-7.1c0-2.7,0.4-5,1.2-6.9c0.8-2,2-3.6,3.6-4.8
				c1.6-1.3,3.4-2.2,5.6-2.8C342.4,49.2,344.8,48.9,347.6,48.9z M360.2,62.2c0-1.2-0.3-2.3-0.8-3.4c-0.5-1.1-1.3-2-2.3-2.9
				c-1-0.8-2.3-1.5-3.9-2c-1.6-0.5-3.5-0.8-5.6-0.8c-2.3,0-4.3,0.2-6,0.7c-1.6,0.5-3,1.1-4,1.9s-1.8,1.8-2.2,3
				c-0.5,1.2-0.7,2.4-0.7,3.9h25.5V62.2z"/>
			<path class="st0" d="M401.5,48.9c3.1,0,5.9,0.2,8.3,0.7c2.4,0.4,4.5,0.9,6.3,1.5v4.3c-2.1-0.7-4.3-1.2-6.6-1.6
				c-2.4-0.4-5.1-0.6-8.1-0.6c-2.9,0-5.2,0.2-6.9,0.7c-1.7,0.5-3.1,1.2-4,2.1c-0.9,0.9-1.5,2.1-1.8,3.5c-0.3,1.4-0.5,3-0.5,4.9
				c0,2.1,0.2,3.9,0.5,5.5c0.3,1.5,0.9,2.8,1.8,3.8c0.9,1,2.2,1.8,3.9,2.2c1.7,0.5,3.8,0.7,6.5,0.7c1.7,0,3.3-0.1,4.9-0.3
				c1.6-0.2,3.1-0.5,4.4-0.8c1.3-0.3,2.5-0.6,3.5-1c1-0.3,1.8-0.6,2.4-0.8v4.3c-0.6,0.2-1.4,0.5-2.5,0.8c-1.1,0.3-2.3,0.6-3.7,0.9
				c-1.4,0.3-2.9,0.6-4.4,0.8c-1.6,0.2-3.1,0.3-4.5,0.3c-3.1,0-5.8-0.3-8-0.9s-4.1-1.6-5.5-2.9c-1.4-1.3-2.5-3-3.1-5.1
				c-0.7-2.1-1-4.6-1-7.6c0-2.7,0.3-5.1,1-7.1c0.7-2,1.7-3.6,3.2-4.8s3.3-2.2,5.7-2.8C395.4,49.2,398.2,48.9,401.5,48.9z"/>
			<path class="st0" d="M421.3,37.8h4.9v42.9h-4.9V37.8z"/>
			<path class="st0" d="M450.4,48.9c3.8,0,6.9,0.4,9.2,1.2c2.3,0.8,4.1,2,5.4,3.5c1.3,1.5,2.1,3.2,2.5,5.2c0.4,2,0.6,4.1,0.6,6.4
				c0,2.2-0.2,4.3-0.6,6.2c-0.4,1.9-1.3,3.6-2.6,5c-1.3,1.4-3.1,2.5-5.5,3.3c-2.4,0.8-5.5,1.2-9.4,1.2c-3.8,0-6.9-0.4-9.2-1.2
				c-2.3-0.8-4.1-1.9-5.4-3.3c-1.3-1.4-2.1-3.1-2.5-5c-0.4-1.9-0.6-4-0.6-6.2c0-2.3,0.2-4.4,0.6-6.4c0.4-2,1.3-3.7,2.6-5.2
				c1.3-1.5,3.1-2.6,5.5-3.5C443.4,49.3,446.5,48.9,450.4,48.9z M450.2,76.7c2.9,0,5.2-0.3,6.9-0.9c1.7-0.6,3.1-1.4,4-2.4
				c0.9-1,1.5-2.3,1.8-3.7c0.3-1.4,0.4-3,0.4-4.7c0-1.7-0.1-3.3-0.4-4.8c-0.3-1.5-0.8-2.7-1.7-3.8c-0.9-1.1-2.2-1.9-3.9-2.5
				c-1.7-0.6-4-0.9-6.9-0.9c-3,0-5.3,0.3-7.1,0.9c-1.7,0.6-3,1.4-3.9,2.5c-0.9,1.1-1.5,2.3-1.7,3.8c-0.3,1.5-0.4,3.1-0.4,4.8
				c0,1.7,0.1,3.3,0.4,4.7c0.3,1.4,0.8,2.6,1.8,3.7c0.9,1,2.2,1.8,3.9,2.4C445,76.4,447.3,76.7,450.2,76.7z"/>
			<path class="st0" d="M490.2,81c-3.2,0-5.9-0.3-8.1-0.8c-2.2-0.5-4-1.4-5.5-2.5s-2.4-2.6-3.1-4.3c-0.6-1.7-1-3.8-1-6.2V49.2h4.9V67
				c0,2.1,0.3,3.9,1,5.1c0.7,1.3,1.6,2.3,2.8,3c1.2,0.7,2.5,1.1,4.1,1.3c1.5,0.2,3.1,0.3,4.8,0.3c1.8,0,3.5-0.2,5-0.4
				c1.6-0.2,2.9-0.7,4.1-1.3c1.2-0.7,2.1-1.6,2.8-2.9c0.7-1.3,1-3,1-5.1V49.2h4.9v17.9c0,2.4-0.3,4.5-1,6.2c-0.6,1.8-1.7,3.2-3.1,4.3
				c-1.4,1.1-3.3,2-5.5,2.5S493.4,81,490.2,81z"/>
			<path class="st0" d="M530.2,81c-3.7,0-6.7-0.4-9-1.2c-2.3-0.8-4.1-2-5.4-3.5c-1.3-1.5-2.2-3.2-2.7-5.2c-0.5-2-0.7-4.1-0.7-6.4
				c0-2.2,0.2-4.3,0.7-6.2c0.5-1.9,1.3-3.6,2.6-5c1.3-1.4,3.1-2.5,5.4-3.3c2.3-0.8,5.2-1.2,8.8-1.2c1.9,0,3.6,0.1,5,0.3
				c1.4,0.2,2.6,0.5,3.7,0.8s2,0.8,2.7,1.3c0.8,0.5,1.5,1.1,2.1,1.7V37.8h4.9v26.9c0,2.3-0.2,4.5-0.7,6.5c-0.5,2-1.4,3.7-2.7,5.1
				c-1.3,1.5-3.1,2.6-5.5,3.4C537,80.5,533.9,81,530.2,81z M529.8,53.2c-2.6,0-4.7,0.3-6.3,0.9c-1.6,0.6-2.9,1.4-3.8,2.4
				c-0.9,1-1.6,2.3-1.9,3.7c-0.3,1.4-0.5,3-0.5,4.7c0,1.7,0.2,3.3,0.5,4.8c0.3,1.5,0.9,2.7,1.9,3.8c0.9,1.1,2.2,1.9,3.9,2.5
				c1.7,0.6,3.9,0.9,6.7,0.9c2.8,0,5.1-0.3,6.8-0.9c1.7-0.6,3-1.4,4-2.5c0.9-1,1.6-2.3,1.9-3.8c0.3-1.5,0.5-3.1,0.5-4.8
				c0-1.7-0.2-3.2-0.6-4.7c-0.4-1.4-1.1-2.6-2.1-3.7c-1-1-2.4-1.8-4.1-2.4C534.8,53.5,532.5,53.2,529.8,53.2z"/>
		</g>
		<polygon class="st1" points="49.9,60.2 49.9,70.7 67.4,70.7 67.4,88.2 78,88.2 78,60.2 "/>
		<polygon class="st1" points="71,39.1 71,49.6 88.5,49.6 88.5,67.1 99,67.1 99,39.1 "/>
		<g>
			<path class="st0" d="M120.7,47.7c-2.4-0.6-3.1-1.6-3.2-3.9c-0.9-18.5-18.3-31.9-36.5-28.4c-9.8,1.9-16.9,7.6-21.8,16.2
				c-0.5,0-0.6,0-0.7,0c-12.7-4.9-20.9-1-24.8,11.8c-0.3,0.9-1.2,1.7-2.1,2.1C21.8,50.7,17,60.5,19.3,71c1.4,6,4.9,11,9.9,14.2v-5.9
				c-3-2.7-5.1-6.5-5.8-10.9c-1.3-8,3.9-16.5,12-19.5c0.9-0.3,1.8-0.7,2.8-1c-0.3-6.1,1.8-10.7,7.5-13.1c6-2.4,10.6,0.3,15,4.8
				c6.5-15.8,17.3-23.4,34.4-18.7c6.4,1.7,11.1,6.1,14.5,11.8c3.4,5.7,3.8,12,3.1,18.6c1.2,0.1,2,0.2,2.9,0.2
				c9.1,0.3,16.1,7.6,15.9,16.8c-0.1,8.7-7.2,15.6-16.2,15.6c-10.6,0-21.3,0-31.9,0v4.9c10.8,0,21.5-0.1,32.3-0.1
				c10.5-0.1,19.1-8.1,20.3-18.1C137.2,59.8,131.1,50.5,120.7,47.7z"/>
		</g>
		<rect x="34.7" y="81.2" class="st1" width="22.2" height="22.2"/>
</g>
</svg>
